<svg width="180" height="40" viewBox="0 0 180 40" fill="none" xmlns="http://www.w3.org/2000/svg">
<path d="M53.2 11.5H50V10H58.2V11.5H55V19.5H53.2V11.5Z" fill="white"/>
<path d="M60.8998 13.2992C61.3998 12.4992 62.2998 12.1992 63.4998 12.1992V13.7992C63.3998 13.7992 63.1998 13.7992 63.0998 13.7992C62.3998 13.7992 61.8998 13.9992 61.4998 14.3992C61.0998 14.6992 60.9998 15.2992 60.9998 15.9992V19.4992H59.2998V12.2992H60.8998V13.2992Z" fill="white"/>
<path d="M67.7004 12.1992C68.8004 12.1992 69.6004 12.4992 70.2004 12.9992C70.8004 13.4992 71.1004 14.2992 71.1004 15.2992V19.4992H69.5004V18.5992C69.3004 18.8992 69.0004 19.1992 68.6004 19.2992C68.2004 19.4992 67.7004 19.4992 67.2004 19.4992C66.7004 19.4992 66.2004 19.3992 65.7004 19.1992C65.3004 18.9992 65.0004 18.7992 64.7004 18.3992C64.5004 18.0992 64.4004 17.6992 64.4004 17.2992C64.4004 16.5992 64.6004 16.0992 65.1004 15.6992C65.6004 15.2992 66.4004 15.0992 67.4004 15.0992H69.3004V14.9992C69.3004 14.4992 69.1004 14.0992 68.8004 13.7992C68.5004 13.4992 68.0004 13.3992 67.4004 13.3992C67.0004 13.3992 66.6004 13.4992 66.2004 13.5992C65.8004 13.6992 65.5004 13.8992 65.2004 14.0992L64.5004 12.8992C64.9004 12.5992 65.4004 12.3992 65.9004 12.1992C66.6004 12.2992 67.1004 12.1992 67.7004 12.1992ZM67.5004 18.3992C67.9004 18.3992 68.3004 18.2992 68.6004 18.0992C68.9004 17.8992 69.2004 17.5992 69.3004 17.2992V16.4992H67.5004C66.5004 16.4992 66.0004 16.7992 66.0004 17.4992C66.0004 17.7992 66.1004 18.0992 66.4004 18.1992C66.7004 18.2992 67.1004 18.3992 67.5004 18.3992Z" fill="white"/>
<path d="M77.5002 12.1992C78.4002 12.1992 79.2002 12.4992 79.7002 12.9992C80.3002 13.4992 80.5002 14.2992 80.5002 15.3992V19.4992H78.8002V15.5992C78.8002 14.9992 78.6002 14.4992 78.3002 14.1992C78.0002 13.8992 77.6002 13.6992 77.0002 13.6992C76.4002 13.6992 75.9002 13.8992 75.5002 14.2992C75.1002 14.6992 74.9002 15.1992 74.9002 15.8992V19.5992H73.2002V12.3992H75.0002V13.2992C75.3002 12.9992 75.6002 12.6992 76.1002 12.4992C76.5002 12.2992 77.0002 12.1992 77.5002 12.1992Z" fill="white"/>
<path d="M85.1004 19.6008C84.5004 19.6008 83.9004 19.5008 83.3004 19.4008C82.7004 19.2008 82.3004 19.1008 81.9004 18.8008L82.6004 17.5008C82.9004 17.7008 83.3004 17.9008 83.8004 18.0008C84.3004 18.1008 84.7004 18.2008 85.2004 18.2008C86.2004 18.2008 86.7004 17.9008 86.7004 17.4008C86.7004 17.1008 86.6004 17.0008 86.3004 16.9008C86.0004 16.8008 85.6004 16.7008 85.0004 16.6008C84.4004 16.5008 83.9004 16.4008 83.5004 16.3008C83.1004 16.2008 82.8004 16.0008 82.5004 15.7008C82.2004 15.4008 82.1004 15.0008 82.1004 14.5008C82.1004 13.8008 82.4004 13.3008 83.0004 12.9008C83.6004 12.5008 84.4004 12.3008 85.4004 12.3008C85.9004 12.3008 86.4004 12.4008 86.9004 12.5008C87.4004 12.6008 87.8004 12.8008 88.1004 12.9008L87.4004 14.2008C86.8004 13.8008 86.1004 13.7008 85.3004 13.7008C84.8004 13.7008 84.4004 13.8008 84.1004 13.9008C83.8004 14.0008 83.7004 14.2008 83.7004 14.5008C83.7004 14.8008 83.8004 15.0008 84.1004 15.1008C84.4004 15.2008 84.8004 15.3008 85.4004 15.4008C86.0004 15.5008 86.5004 15.6008 86.9004 15.7008C87.3004 15.8008 87.6004 16.0008 87.9004 16.3008C88.2004 16.6008 88.3004 17.0008 88.3004 17.5008C88.3004 18.2008 88.0004 18.7008 87.4004 19.1008C86.9004 19.4008 86.1004 19.6008 85.1004 19.6008Z" fill="white"/>
<path d="M94.0004 12.1992C94.7004 12.1992 95.4004 12.3992 95.9004 12.6992C96.5004 12.9992 96.9004 13.3992 97.2004 13.9992C97.5004 14.5992 97.7004 15.1992 97.7004 15.8992C97.7004 16.5992 97.5004 17.2992 97.2004 17.8992C96.9004 18.4992 96.4004 18.8992 95.9004 19.1992C95.3004 19.4992 94.7004 19.6992 94.0004 19.6992C93.0004 19.6992 92.2004 19.3992 91.6004 18.6992V22.1992H89.9004V12.2992H91.5004V13.1992C91.8004 12.8992 92.1004 12.5992 92.6004 12.3992C93.0004 12.2992 93.5004 12.1992 94.0004 12.1992ZM93.8004 18.1992C94.4004 18.1992 95.0004 17.9992 95.4004 17.5992C95.8004 17.1992 96.0004 16.5992 96.0004 15.9992C96.0004 15.2992 95.8004 14.7992 95.4004 14.3992C95.0004 13.9992 94.5004 13.7992 93.8004 13.7992C93.4004 13.7992 93.0004 13.8992 92.7004 14.0992C92.4004 14.2992 92.1004 14.4992 91.9004 14.8992C91.7004 15.1992 91.6004 15.5992 91.6004 16.0992C91.6004 16.5992 91.7004 16.8992 91.9004 17.2992C92.1004 17.5992 92.4004 17.8992 92.7004 18.0992C93.0004 18.0992 93.4004 18.1992 93.8004 18.1992Z" fill="white"/>
<path d="M102.1 12.1992C103.2 12.1992 104 12.4992 104.6 12.9992C105.2 13.4992 105.5 14.2992 105.5 15.2992V19.4992H103.9V18.5992C103.7 18.8992 103.4 19.1992 103 19.2992C102.6 19.4992 102.1 19.4992 101.6 19.4992C101 19.4992 100.6 19.3992 100.1 19.1992C99.6998 18.9992 99.3998 18.7992 99.0998 18.3992C98.8998 18.0992 98.7998 17.6992 98.7998 17.2992C98.7998 16.5992 98.9998 16.0992 99.4998 15.6992C99.9998 15.2992 100.8 15.0992 101.8 15.0992H103.7V14.9992C103.7 14.4992 103.5 14.0992 103.2 13.7992C102.9 13.4992 102.4 13.3992 101.8 13.3992C101.4 13.3992 101 13.4992 100.6 13.5992C100.2 13.6992 99.8998 13.8992 99.5998 14.0992L98.9998 13.0992C99.3998 12.7992 99.8998 12.5992 100.4 12.3992C100.9 12.2992 101.5 12.1992 102.1 12.1992ZM101.9 18.3992C102.3 18.3992 102.7 18.2992 103 18.0992C103.3 17.8992 103.6 17.5992 103.7 17.2992V16.4992H102C101 16.4992 100.5 16.7992 100.5 17.4992C100.5 17.7992 100.6 18.0992 100.9 18.1992C101.1 18.2992 101.4 18.3992 101.9 18.3992Z" fill="white"/>
<path d="M109.4 13.2992C109.9 12.4992 110.8 12.1992 112 12.1992V13.7992C111.9 13.7992 111.7 13.7992 111.6 13.7992C110.9 13.7992 110.4 13.9992 110 14.3992C109.6 14.7992 109.4 15.2992 109.4 16.0992V19.5992H107.7V12.3992H109.3V13.2992H109.4Z" fill="white"/>
<path d="M120.3 15.8992C120.3 15.9992 120.3 16.1992 120.3 16.3992H114.5C114.6 16.8992 114.9 17.3992 115.3 17.6992C115.7 17.9992 116.3 18.1992 116.9 18.1992C117.7 18.1992 118.4 17.8992 118.9 17.3992L119.8 18.3992C119.5 18.7992 119 19.0992 118.5 19.2992C118 19.4992 117.4 19.5992 116.8 19.5992C116 19.5992 115.3 19.3992 114.7 19.0992C114.1 18.7992 113.6 18.2992 113.3 17.7992C113 17.1992 112.8 16.5992 112.8 15.8992C112.8 15.1992 113 14.5992 113.3 13.9992C113.6 13.3992 114.1 12.9992 114.7 12.6992C115.3 12.3992 115.9 12.1992 116.7 12.1992C117.4 12.1992 118.1 12.3992 118.6 12.6992C119.2 12.9992 119.6 13.3992 119.9 13.9992C120.2 14.4992 120.3 15.1992 120.3 15.8992ZM116.6 13.5992C116 13.5992 115.6 13.7992 115.2 14.0992C114.8 14.3992 114.6 14.7992 114.5 15.3992H118.7C118.6 14.8992 118.4 14.4992 118 14.0992C117.6 13.6992 117.2 13.5992 116.6 13.5992Z" fill="white"/>
<path d="M126.2 12.1992C127.1 12.1992 127.9 12.4992 128.4 12.9992C129 13.4992 129.2 14.2992 129.2 15.3992V19.4992H127.5V15.5992C127.5 14.9992 127.3 14.4992 127 14.1992C126.7 13.8992 126.3 13.6992 125.7 13.6992C125.1 13.6992 124.6 13.8992 124.2 14.2992C123.8 14.6992 123.6 15.1992 123.6 15.8992V19.5992H122V12.3992H123.6V13.2992C123.9 12.9992 124.2 12.6992 124.7 12.4992C125.1 12.2992 125.6 12.1992 126.2 12.1992Z" fill="white"/>
<path d="M133.6 11.5H130.4V10H138.6V11.5H135.4V19.5H133.6V11.5Z" fill="white"/>
<path d="M146 15.8992C146 15.9992 146 16.1992 146 16.3992H140.2C140.3 16.8992 140.6 17.3992 141 17.6992C141.4 17.9992 142 18.1992 142.6 18.1992C143.4 18.1992 144.1 17.8992 144.6 17.3992L145.5 18.3992C145.2 18.7992 144.7 19.0992 144.2 19.2992C143.7 19.4992 143.1 19.5992 142.5 19.5992C141.7 19.5992 141 19.3992 140.4 19.0992C139.8 18.7992 139.3 18.2992 139 17.7992C138.7 17.1992 138.5 16.5992 138.5 15.8992C138.5 15.1992 138.7 14.5992 139 13.9992C139.3 13.3992 139.8 12.9992 140.4 12.6992C141 12.3992 141.6 12.1992 142.4 12.1992C143.1 12.1992 143.8 12.3992 144.3 12.6992C144.9 12.9992 145.3 13.3992 145.6 13.9992C145.8 14.4992 146 15.1992 146 15.8992ZM142.2 13.5992C141.6 13.5992 141.2 13.7992 140.8 14.0992C140.4 14.3992 140.2 14.7992 140.1 15.3992H144.3C144.2 14.8992 144 14.4992 143.6 14.0992C143.3 13.6992 142.8 13.5992 142.2 13.5992Z" fill="white"/>
<path d="M149.3 13.2992C149.8 12.4992 150.7 12.1992 151.9 12.1992V13.7992C151.8 13.7992 151.6 13.7992 151.5 13.7992C150.8 13.7992 150.3 13.9992 149.9 14.3992C149.5 14.7992 149.3 15.2992 149.3 16.0992V19.5992H147.6V12.3992H149.2V13.2992H149.3Z" fill="white"/>
<path d="M155 13.2992C155.5 12.4992 156.4 12.1992 157.6 12.1992V13.7992C157.5 13.7992 157.3 13.7992 157.2 13.7992C156.5 13.7992 156 13.9992 155.6 14.3992C155.2 14.7992 155 15.2992 155 16.0992V19.5992H153.3V12.3992H154.9V13.2992H155Z" fill="white"/>
<path d="M161.9 12.1992C163 12.1992 163.8 12.4992 164.4 12.9992C165 13.4992 165.3 14.2992 165.3 15.2992V19.4992H163.7V18.5992C163.5 18.8992 163.2 19.1992 162.8 19.2992C162.4 19.4992 161.9 19.4992 161.4 19.4992C160.9 19.4992 160.4 19.3992 159.9 19.1992C159.5 18.9992 159.2 18.7992 158.9 18.3992C158.7 18.0992 158.6 17.6992 158.6 17.2992C158.6 16.5992 158.8 16.0992 159.3 15.6992C159.8 15.2992 160.6 15.0992 161.6 15.0992H163.5V14.9992C163.5 14.4992 163.3 14.0992 163 13.7992C162.7 13.4992 162.2 13.3992 161.6 13.3992C161.2 13.3992 160.8 13.4992 160.4 13.5992C160 13.6992 159.7 13.8992 159.4 14.0992L158.7 12.8992C159.1 12.5992 159.6 12.3992 160.1 12.1992C160.7 12.2992 161.3 12.1992 161.9 12.1992ZM161.7 18.3992C162.1 18.3992 162.5 18.2992 162.8 18.0992C163.1 17.8992 163.4 17.5992 163.5 17.2992V16.4992H161.7C160.7 16.4992 160.2 16.7992 160.2 17.4992C160.2 17.7992 160.3 18.0992 160.6 18.1992C160.9 18.2992 161.2 18.3992 161.7 18.3992Z" fill="white"/>
<path d="M171.9 8.4H170.2V8H174.1V8.4H172.4V12.7H171.9V8.4V8.4Z" fill="white"/>
<path d="M180 8V12.7H179.5V8.9L177.6 12.1H177.4L175.5 9V12.8H175V8H175.4L177.5 11.5L179.6 8H180Z" fill="white"/>
<path d="M71.6996 26.5996H69.5996V25.5996H75.0996V26.5996H72.9996V31.8996H71.7996V26.5996H71.6996Z" fill="white"/>
<path d="M77.5996 32C77.0996 32 76.6996 31.9 76.2996 31.7C75.8996 31.5 75.5996 31.2 75.3996 30.8C75.1996 30.4 75.0996 30 75.0996 29.5C75.0996 29 75.1996 28.6 75.3996 28.2C75.5996 27.8 75.8996 27.5 76.2996 27.3C76.6996 27.1 77.0996 27 77.5996 27C78.0996 27 78.5996 27.1 78.9996 27.3C79.3996 27.5 79.6996 27.8 79.8996 28.2C80.0996 28.6 80.1996 29 80.1996 29.5C80.1996 30 80.0996 30.4 79.8996 30.8C79.6996 31.2 79.3996 31.5 78.9996 31.7C78.4996 31.9 78.0996 32 77.5996 32ZM77.5996 31C77.9996 31 78.3996 30.9 78.6996 30.6C78.9996 30.3 79.0996 30 79.0996 29.5C79.0996 29 78.9996 28.7 78.6996 28.4C78.2996 28.2 77.9996 28 77.5996 28C77.1996 28 76.7996 28.1 76.4996 28.4C76.1996 28.7 76.0996 29 76.0996 29.5C76.0996 30 76.1996 30.3 76.4996 30.6C76.7996 30.9 77.0996 31 77.5996 31Z" fill="white"/>
<path d="M88.2 31.9L86.9 30C86.8 30 86.8 30 86.7 30H85.2V31.8H84V25.5H86.7C87.3 25.5 87.7 25.6 88.2 25.8C88.6 26 88.9 26.2 89.2 26.6C89.4 26.9 89.5 27.3 89.5 27.8C89.5 28.3 89.4 28.7 89.1 29C88.9 29.3 88.5 29.6 88.1 29.8L89.6 31.9H88.2V31.9ZM88.1 27.9C88.1 27.5 88 27.2 87.7 27C87.4 26.8 87 26.7 86.5 26.7H85.1V29.2H86.5C87 29.2 87.4 29.1 87.7 28.9C88 28.6 88.1 28.3 88.1 27.9Z" fill="white"/>
<path d="M95.1992 29.6C95.1992 29.7 95.1992 29.8 95.1992 29.9H91.2992C91.3992 30.3 91.4992 30.5 91.7992 30.7C92.0992 30.9 92.3992 31 92.8992 31C93.3992 31 93.8992 30.8 94.1992 30.5L94.7992 31.2C94.5992 31.5 94.2992 31.7 93.9992 31.8C93.6992 31.9 93.2992 32 92.8992 32C92.3992 32 91.8992 31.9 91.4992 31.7C91.0992 31.5 90.7992 31.2 90.4992 30.8C90.2992 30.4 90.1992 30 90.1992 29.5C90.1992 29 90.2992 28.6 90.4992 28.2C90.6992 27.8 90.9992 27.5 91.3992 27.3C91.7992 27.1 92.1992 27 92.6992 27C93.1992 27 93.5992 27.1 93.9992 27.3C94.3992 27.5 94.6992 27.8 94.8992 28.2C95.0992 28.6 95.1992 29.1 95.1992 29.6ZM92.6992 28C92.2992 28 91.9992 28.1 91.7992 28.3C91.4992 28.5 91.3992 28.8 91.2992 29.1H94.0992C94.0992 28.8 93.8992 28.5 93.5992 28.3C93.3992 28.1 93.0992 28 92.6992 28Z" fill="white"/>
<path d="M97.7992 32C97.3992 32 96.9992 31.9 96.5992 31.8C96.1992 31.7 95.8992 31.6 95.6992 31.4L96.0992 30.5C96.2992 30.6 96.5992 30.8 96.8992 30.9C97.1992 31 97.4992 31 97.7992 31C98.4992 31 98.7992 30.8 98.7992 30.5C98.7992 30.3 98.6992 30.2 98.4992 30.1C98.2992 30 97.9992 30 97.6992 29.9C97.2992 29.8 96.9992 29.8 96.6992 29.7C96.3992 29.6 96.1992 29.5 95.9992 29.3C95.7992 29.1 95.6992 28.8 95.6992 28.5C95.6992 28 95.8992 27.7 96.2992 27.4C96.6992 27.1 97.1992 27 97.8992 27C98.1992 27 98.5992 27 98.8992 27.1C99.1992 27.2 99.4992 27.3 99.6992 27.4L99.2992 28.3C98.8992 28.1 98.3992 27.9 97.8992 27.9C97.5992 27.9 97.2992 28 97.0992 28.1C96.8992 28.2 96.7992 28.3 96.7992 28.5C96.7992 28.7 96.8992 28.8 97.0992 28.9C97.2992 29 97.5992 29 97.9992 29.1C98.3992 29.2 98.6992 29.2 98.9992 29.3C99.2992 29.4 99.4992 29.5 99.5992 29.7C99.7992 29.9 99.8992 30.2 99.8992 30.5C99.8992 31 99.6992 31.3 99.2992 31.6C99.0992 31.9 98.4992 32 97.7992 32Z" fill="white"/>
<path d="M103.999 31.7C103.899 31.8 103.699 31.9 103.499 31.9C103.299 32 103.099 32 102.899 32C102.399 32 101.899 31.9 101.599 31.6C101.299 31.3 101.199 30.9 101.199 30.4V28.1H100.399V27.2H101.199V26H102.399V27.1H103.699V28H102.399V30.3C102.399 30.5 102.499 30.7 102.599 30.8C102.699 30.9 102.899 31 103.099 31C103.399 31 103.599 30.9 103.699 30.8L103.999 31.7Z" fill="white"/>
<path d="M107 32C106.5 32 106.1 31.9 105.7 31.7C105.3 31.5 105 31.2 104.8 30.8C104.6 30.4 104.5 30 104.5 29.5C104.5 29 104.6 28.6 104.8 28.2C105 27.8 105.3 27.5 105.7 27.3C106.1 27.1 106.5 27 107 27C107.5 27 108 27.1 108.4 27.3C108.8 27.5 109.1 27.8 109.3 28.2C109.5 28.6 109.6 29 109.6 29.5C109.6 30 109.5 30.4 109.3 30.8C109.1 31.2 108.8 31.5 108.4 31.7C108 31.9 107.5 32 107 32ZM107 31C107.4 31 107.8 30.9 108.1 30.6C108.4 30.3 108.5 30 108.5 29.5C108.5 29 108.4 28.7 108.1 28.4C107.8 28.1 107.5 28 107 28C106.6 28 106.2 28.1 105.9 28.4C105.6 28.7 105.5 29 105.5 29.5C105.5 30 105.6 30.3 105.9 30.6C106.2 30.9 106.6 31 107 31Z" fill="white"/>
<path d="M111.8 27.8C112.1 27.3 112.7 27 113.6 27V28.1C113.5 28.1 113.4 28.1 113.3 28.1C112.9 28.1 112.5 28.2 112.2 28.5C111.9 28.8 111.8 29.1 111.8 29.6V31.9H110.6V27.1H111.7V27.8H111.8Z" fill="white"/>
<path d="M119.199 29.6C119.199 29.7 119.199 29.8 119.199 29.9H115.299C115.399 30.3 115.499 30.5 115.799 30.7C116.099 30.9 116.399 31 116.899 31C117.399 31 117.899 30.8 118.199 30.5L118.799 31.2C118.599 31.5 118.299 31.7 117.999 31.8C117.699 31.9 117.299 32 116.899 32C116.399 32 115.899 31.9 115.499 31.7C115.099 31.5 114.799 31.2 114.499 30.8C114.299 30.4 114.199 30 114.199 29.5C114.199 29 114.299 28.6 114.499 28.2C114.699 27.8 114.999 27.5 115.399 27.3C115.799 27.1 116.199 27 116.699 27C117.199 27 117.599 27.1 117.999 27.3C118.399 27.5 118.699 27.8 118.899 28.2C119.099 28.6 119.199 29.1 119.199 29.6ZM116.699 28C116.299 28 115.999 28.1 115.799 28.3C115.499 28.5 115.399 28.8 115.299 29.1H118.099C118.099 28.8 117.899 28.5 117.599 28.3C117.399 28.1 116.999 28 116.699 28Z" fill="white"/>
<path d="M124.2 26.5996H122.1V25.5996H127.6V26.5996H125.5V31.8996H124.3V26.5996H124.2Z" fill="white"/>
<path d="M129.3 27.8C129.6 27.3 130.2 27 131.1 27V28.1C131 28.1 130.9 28.1 130.8 28.1C130.4 28.1 130 28.2 129.7 28.5C129.4 28.8 129.3 29.1 129.3 29.6V31.9H128.1V27.1H129.2V27.8H129.3Z" fill="white"/>
<path d="M136.9 27.0996V31.8996H135.8V31.2996C135.6 31.4996 135.4 31.6996 135.1 31.7996C134.8 31.8996 134.5 31.9996 134.2 31.9996C133.5 31.9996 133 31.7996 132.6 31.4996C132.2 31.0996 132 30.5996 132 29.8996V27.0996H133.2V29.6996C133.2 30.0996 133.3 30.4996 133.5 30.6996C133.7 30.8996 134 30.9996 134.4 30.9996C134.8 30.9996 135.1 30.8996 135.4 30.5996C135.6 30.2996 135.8 29.9996 135.8 29.4996V27.0996H136.9Z" fill="white"/>
<path d="M139.9 32C139.5 32 139.1 31.9 138.7 31.8C138.3 31.7 138 31.6 137.8 31.4L138.2 30.5C138.4 30.6 138.7 30.8 139 30.9C139.3 31 139.6 31 139.9 31C140.6 31 140.9 30.8 140.9 30.5C140.9 30.3 140.8 30.2 140.6 30.1C140.4 30 140.1 30 139.8 29.9C139.4 29.8 139.1 29.8 138.8 29.7C138.5 29.6 138.3 29.5 138.1 29.3C137.9 29.1 137.8 28.8 137.8 28.5C137.8 28 138 27.7 138.4 27.4C138.8 27.1 139.3 27 140 27C140.3 27 140.7 27 141 27.1C141.3 27.2 141.6 27.3 141.8 27.4L141.4 28.3C141 28.1 140.5 27.9 140 27.9C139.7 27.9 139.4 28 139.2 28.1C139 28.2 138.9 28.3 138.9 28.5C138.9 28.7 139 28.8 139.2 28.9C139.4 29 139.7 29 140.1 29.1C140.5 29.2 140.8 29.2 141.1 29.3C141.4 29.4 141.6 29.5 141.7 29.7C141.9 29.9 142 30.2 142 30.5C142 31 141.8 31.3 141.4 31.6C141.2 31.9 140.6 32 139.9 32Z" fill="white"/>
<path d="M146.1 31.7C146 31.8 145.8 31.9 145.6 31.9C145.4 32 145.2 32 145 32C144.5 32 144 31.9 143.7 31.6C143.4 31.3 143.3 30.9 143.3 30.4V28.1H142.5V27.2H143.3V26H144.5V27.1H145.8V28H144.5V30.3C144.5 30.5 144.6 30.7 144.7 30.8C144.8 30.9 145 31 145.2 31C145.5 31 145.7 30.9 145.8 30.8L146.1 31.7Z" fill="white"/>
<path d="M22.3114 10.0348C21.5714 9.8668 20.7994 9.7748 20.0034 9.7748C18.0314 9.7748 16.1954 10.3348 14.6234 11.3028L12.2314 10.1028C13.8634 8.8228 15.7914 7.9628 17.8314 7.6028C18.0234 7.5628 18.2234 7.5428 18.4234 7.5148L19.9994 1.9668L21.5874 7.5188L22.3114 10.0348Z" fill="#2E58A6"/>
<path d="M14.0716 11.6747C12.2116 13.0067 10.8116 14.9467 10.1716 17.1947L7.59961 17.9267C7.93961 15.9067 8.75961 13.9987 10.0076 12.3667C10.1396 12.2067 10.2676 12.0467 10.3996 11.8987L9.00761 9.13867L11.7596 10.5187L14.0716 11.6747Z" fill="#122164"/>
<path d="M11.3197 25.375V25.387L10.1117 27.779C8.83168 26.147 7.97168 24.227 7.61168 22.179C7.57968 21.987 7.55168 21.799 7.51968 21.599L1.97168 20.007L7.51968 18.427L10.0397 17.707C9.87168 18.447 9.77968 19.207 9.77968 19.995C9.77968 21.975 10.3397 23.815 11.3197 25.375Z" fill="#12491D"/>
<path d="M17.9199 32.4142C15.8999 32.0742 13.9919 31.2462 12.3599 29.9942C12.1999 29.8742 12.0399 29.7462 11.8879 29.6142L9.12793 30.9942L10.5079 28.2422L11.6679 25.9102C12.9879 27.7782 14.9279 29.1822 17.1879 29.8222L17.9199 32.4142Z" fill="#237D26"/>
<path d="M27.7715 29.8952C26.1395 31.1752 24.2235 32.0352 22.1715 32.3952C21.9795 32.4352 21.7915 32.4552 21.5915 32.4832L19.9995 38.0352L18.4075 32.4872L17.6875 29.9592C18.4275 30.1392 19.2075 30.2272 19.9955 30.2272C21.9755 30.2272 23.8155 29.6672 25.3755 28.6992L27.7715 29.8952Z" fill="#2DA131"/>
<path d="M29.6122 28.1257L30.9922 30.8857L28.2402 29.5057L25.9082 28.3457C27.7682 27.0257 29.1682 25.0857 29.8162 22.8377L32.4082 22.0977C32.0682 24.1177 31.2402 26.0297 29.9882 27.6577C29.8722 27.8137 29.7402 27.9737 29.6122 28.1257Z" fill="#41AA54"/>
<path d="M38.0314 20.0144L32.4794 21.5944L29.9474 22.3264C30.1274 21.5744 30.2194 20.7944 30.2194 19.9944C30.2194 18.0264 29.6594 16.1864 28.6914 14.6264L29.8914 12.2344C31.1834 13.8664 32.0434 15.7944 32.3914 17.8344C32.4314 18.0344 32.4634 18.2224 32.4834 18.4224L38.0314 20.0144Z" fill="#01A0C6"/>
<path d="M30.8801 9.03523L29.5001 11.7872L28.3401 14.0952C27.0201 12.2152 25.0681 10.8152 22.8121 10.1672L22.0801 7.61523C24.1121 7.94723 26.0201 8.77523 27.6521 10.0272C27.8121 10.1552 27.9721 10.2752 28.1241 10.4152L30.8801 9.03523Z" fill="#4FA0CA"/>
<path fill-rule="evenodd" clip-rule="evenodd" d="M40 20.012L33.008 18.012C32.644 15.62 31.64 13.44 30.168 11.656L32.096 7.82L28.24 9.752C26.484 8.332 24.348 7.356 22.016 6.996L20.008 0L18.008 6.996C15.608 7.36 13.424 8.372 11.64 9.848L7.808 7.92L9.736 11.776C8.316 13.536 7.344 15.676 6.992 18.016L0 20.012L6.996 22.008C7.36 24.4 8.372 26.58 9.848 28.364L7.912 32.212L11.792 30.276C13.548 31.692 15.676 32.656 18.004 33.012L20.004 40L22.012 33.012C24.396 32.648 26.576 31.636 28.356 30.168L32.212 32.104L30.268 28.236C31.684 26.48 32.652 24.344 33.012 22.016L40 20.012ZM29.08 10.54L29.12 10.52L29.668 10.24L29.4 10.8L29.38 10.84L29.02 11.54L28.048 13.48C26.848 11.992 25.24 10.848 23.388 10.208L22.848 8.32C24.48 8.72 26 9.452 27.328 10.46V10.472C27.476 10.584 27.628 10.704 27.78 10.832L28.048 11.06L29.08 10.54ZM18.48 8.052L18.832 8.012L19.152 6.924L19.168 6.88L20.012 3.936L20.848 6.88L20.864 6.924L21.084 7.664V7.676L21.672 9.784C21.132 9.696 20.572 9.644 20.004 9.644C18.204 9.644 16.512 10.104 15.032 10.912L13.26 10.024C14.672 9.072 16.252 8.432 17.92 8.132C18.108 8.1 18.288 8.072 18.48 8.052ZM10.228 10.352L10.772 10.632L10.816 10.652L13.456 11.972C11.976 13.172 10.836 14.78 10.208 16.62L8.308 17.172C8.708 15.552 9.428 14.032 10.448 12.7C10.568 12.552 10.688 12.392 10.808 12.248L11.048 11.98L10.528 10.94L10.508 10.9L10.228 10.352ZM6.92 20.868L6.876 20.852L3.94 20.008L6.868 19.172L6.916 19.156L9.768 18.336C9.688 18.876 9.636 19.436 9.636 19.996C9.636 21.796 10.096 23.496 10.904 24.976L10.024 26.744C9.072 25.344 8.436 23.756 8.144 22.084C8.104 21.904 8.084 21.716 8.056 21.524L8.016 21.172L6.92 20.868ZM10.948 29.48L10.904 29.5L10.34 29.792L10.624 29.228L10.648 29.184L10.988 28.496L11.968 26.556C13.176 28.028 14.776 29.164 16.608 29.796L17.156 31.716C15.536 31.316 14.016 30.596 12.688 29.576L12.68 29.56C12.54 29.46 12.388 29.34 12.24 29.208L11.972 28.968L10.948 29.48ZM10.868 20C10.868 14.96 14.956 10.868 20 10.868C25.048 10.868 29.14 14.956 29.14 20C29.14 25.052 25.052 29.14 20 29.14C14.96 29.14 10.868 25.052 10.868 20ZM21.52 31.952L21.168 31.992L20.86 33.08L20.844 33.128L20 36.072L19.164 33.132L19.148 33.084L18.328 30.224C18.876 30.312 19.428 30.364 20 30.364C21.808 30.364 23.5 29.904 24.968 29.092L26.736 29.984C25.336 30.932 23.748 31.572 22.076 31.872C21.9 31.9 21.708 31.92 21.52 31.952ZM29.78 29.68L29.216 29.392L29.172 29.372L28.492 29.032L26.52 28.052C28 26.852 29.152 25.252 29.78 23.412L31.7 22.864C31.308 24.48 30.58 26 29.56 27.32C29.448 27.48 29.32 27.628 29.2 27.78L28.972 28.052L29.48 29.06L29.5 29.1L29.78 29.68ZM30.22 21.692C30.308 21.144 30.36 20.572 30.36 20C30.36 18.2 29.9 16.512 29.1 15.04L29.98 13.28C30.932 14.68 31.568 16.272 31.86 17.94V17.952C31.9 18.132 31.92 18.312 31.948 18.5L31.988 18.852L33.088 19.172L33.132 19.18L36.068 20.02L33.128 20.86L33.088 20.868L30.22 21.692Z" fill="white"/>
</svg>
